<svg xmlns="http://www.w3.org/2000/svg" width="13.625" height="16" viewBox="0 0 13.625 16"><defs><style>.a{fill:#ff9300;}</style></defs><g transform="translate(0 0.001)"><path class="a" d="M123.49,158.457a3.049,3.049,0,1,0,3.048,3.048A3.052,3.052,0,0,0,123.49,158.457Zm1.81,2.474-2.184,2.184a.469.469,0,0,1-.664,0l-.835-.835a.469.469,0,1,1,.664-.664l.5.5,1.852-1.852a.469.469,0,1,1,.664.664Zm0,0" transform="translate(-116.677 -153.506)"/><path class="a" d="M13.609,4.34V4.328c-.007-.154-.012-.316-.014-.5A1.7,1.7,0,0,0,12,2.169,6.58,6.58,0,0,1,7.519.282l-.01-.01a1.024,1.024,0,0,0-1.392,0l-.01.01A6.581,6.581,0,0,1,1.628,2.169a1.7,1.7,0,0,0-1.6,1.661c0,.18-.007.342-.014.5v.029a17.34,17.34,0,0,0,.7,6.329A8.057,8.057,0,0,0,2.65,13.7a10.112,10.112,0,0,0,3.783,2.237,1.171,1.171,0,0,0,.155.042,1.145,1.145,0,0,0,.45,0,1.175,1.175,0,0,0,.156-.042A10.118,10.118,0,0,0,10.972,13.7a8.068,8.068,0,0,0,1.933-3.012A17.366,17.366,0,0,0,13.609,4.34Zm-6.8,7.646A3.987,3.987,0,1,1,10.8,8,3.992,3.992,0,0,1,6.813,11.987Zm0,0"/></g></svg>