<svg xmlns="http://www.w3.org/2000/svg" width="13.349" height="16" viewBox="0 0 13.349 16"><defs><style>.a{fill:#ff9300;}</style></defs><g transform="translate(0 0)"><path class="a" d="M90.885,7.707A3.729,3.729,0,0,0,93.61,6.578a3.729,3.729,0,0,0,1.129-2.725A3.729,3.729,0,0,0,93.61,1.129a3.853,3.853,0,0,0-5.449,0,3.729,3.729,0,0,0-1.129,2.725,3.729,3.729,0,0,0,1.129,2.725A3.73,3.73,0,0,0,90.885,7.707Zm0,0" transform="translate(-84.312)"/><path class="a" d="M13.316,251.891a9.519,9.519,0,0,0-.13-1.011,7.966,7.966,0,0,0-.249-1.016,5.021,5.021,0,0,0-.418-.948,3.577,3.577,0,0,0-.63-.821,2.778,2.778,0,0,0-.905-.569,3.128,3.128,0,0,0-1.156-.209,1.173,1.173,0,0,0-.626.266c-.188.122-.407.264-.652.421a3.739,3.739,0,0,1-.844.372,3.278,3.278,0,0,1-2.065,0A3.73,3.73,0,0,1,4.8,248c-.243-.155-.463-.3-.653-.421a1.171,1.171,0,0,0-.626-.266,3.124,3.124,0,0,0-1.155.209,2.776,2.776,0,0,0-.905.569,3.578,3.578,0,0,0-.63.821,5.031,5.031,0,0,0-.418.948,7.984,7.984,0,0,0-.249,1.016,9.484,9.484,0,0,0-.13,1.011c-.021.306-.032.624-.032.945a2.657,2.657,0,0,0,.789,2.01,2.841,2.841,0,0,0,2.033.742h7.7a2.84,2.84,0,0,0,2.033-.742,2.656,2.656,0,0,0,.789-2.01c0-.322-.011-.64-.032-.945Zm0,0" transform="translate(0 -239.588)"/></g></svg>