<svg xmlns="http://www.w3.org/2000/svg" width="24" height="22.63" viewBox="0 0 24 22.63"><defs><style>.a{fill:#707070;}</style></defs><g transform="translate(0.004 -0.415)"><path class="a" d="M98.811,322.371a2.858,2.858,0,1,0,2.858,2.858,2.858,2.858,0,0,0-2.858-2.858Zm0,0" transform="translate(-90.916 -305.042)"/><path class="a" d="M23.892,5.545a.533.533,0,0,0-.42-.21H4.921L4.543,3.218A3.157,3.157,0,0,0,1.985.665L.614.423A.526.526,0,1,0,.43,1.458L1.806,1.7a2.1,2.1,0,0,1,1.7,1.7l1.86,10.491a2.621,2.621,0,0,0,2.585,2.17H18.985A2.619,2.619,0,0,0,21.5,14.2l2.469-8.185a.512.512,0,0,0-.079-.468Zm0,0" transform="translate(0 0)"/><path class="a" d="M308.811,322.371a2.858,2.858,0,1,0,2.858,2.858A2.858,2.858,0,0,0,308.811,322.371Zm0,0" transform="translate(-289.883 -305.042)"/></g></svg>